<svg width="1600" height="1000" viewBox="0 0 1600 1000" fill="none" xmlns="http://www.w3.org/2000/svg">
  <rect width="1600" height="1000" fill="#111111"/>
  <g font-family="Geist Mono, SFMono-Regular, Menlo, monospace">
    <text x="80" y="92" fill="#f5f5f5" font-size="32" font-weight="700">Amend.sh mark study</text>
    <text x="80" y="126" fill="#8a8a8a" font-size="18">pixel transfer / source evidence / customer update</text>
    <text x="1320" y="92" fill="#8a8a8a" font-size="16">brandkit pass 01</text>
  </g>

  <g stroke="#272727">
    <rect x="80" y="170" width="680" height="330"/>
    <rect x="840" y="170" width="680" height="330"/>
    <rect x="80" y="560" width="440" height="300"/>
    <rect x="580" y="560" width="440" height="300"/>
    <rect x="1080" y="560" width="440" height="300"/>
  </g>

  <g transform="translate(332 242) scale(3.2)" color="#f5f5f5">
    <path d="M22 16H42M48 22V31H39M25 33H16V42" stroke="currentColor" stroke-linecap="square" stroke-width="4" opacity=".55"/>
    <rect x="8" y="8" width="16" height="16" rx="2" fill="currentColor"/>
    <rect x="40" y="8" width="16" height="16" rx="2" stroke="currentColor" stroke-width="4"/>
    <rect x="24" y="24" width="16" height="16" rx="2" fill="currentColor" opacity=".8"/>
    <rect x="8" y="40" width="16" height="16" rx="2" stroke="currentColor" stroke-width="4"/>
  </g>
  <g font-family="Geist Mono, SFMono-Regular, Menlo, monospace">
    <text x="112" y="458" fill="#f5f5f5" font-size="18" font-weight="700">Selected: transfer grid</text>
    <text x="112" y="482" fill="#8a8a8a" font-size="14">Ownable, compact, no outer container, matches the landing theme.</text>
  </g>

  <g transform="translate(1008 242) scale(3.2)" color="#f5f5f5">
    <path d="M16 18H44V46H18" stroke="currentColor" stroke-linecap="square" stroke-width="4" opacity=".45"/>
    <rect x="8" y="10" width="16" height="16" rx="1" fill="currentColor"/>
    <rect x="40" y="10" width="16" height="16" rx="1" stroke="currentColor" stroke-width="4"/>
    <rect x="8" y="38" width="16" height="16" rx="1" stroke="currentColor" stroke-width="4"/>
  </g>
  <g font-family="Geist Mono, SFMono-Regular, Menlo, monospace">
    <text x="872" y="458" fill="#f5f5f5" font-size="18" font-weight="700">Alternate: source bracket</text>
    <text x="872" y="482" fill="#8a8a8a" font-size="14">Rejected: too close to a generic file/tree icon at small sizes.</text>
  </g>

  <g transform="translate(218 630) scale(2)" color="#f5f5f5">
    <path d="M18 16H46M46 16V48M46 48H18" stroke="currentColor" stroke-linecap="square" stroke-width="4" opacity=".4"/>
    <rect x="8" y="8" width="18" height="18" rx="2" fill="currentColor"/>
    <rect x="38" y="8" width="18" height="18" rx="2" stroke="currentColor" stroke-width="4"/>
    <rect x="8" y="38" width="18" height="18" rx="2" stroke="currentColor" stroke-width="4"/>
  </g>
  <g font-family="Geist Mono, SFMono-Regular, Menlo, monospace">
    <text x="112" y="812" fill="#f5f5f5" font-size="17" font-weight="700">Loop corner</text>
    <text x="112" y="836" fill="#8a8a8a" font-size="13">Too circular conceptually.</text>
  </g>

  <g transform="translate(720 630) scale(2)" color="#f5f5f5">
    <path d="M16 46H30V18H48" stroke="currentColor" stroke-linecap="square" stroke-width="4" opacity=".45"/>
    <rect x="8" y="38" width="16" height="16" rx="2" fill="currentColor"/>
    <rect x="24" y="10" width="16" height="16" rx="2" stroke="currentColor" stroke-width="4"/>
    <rect x="40" y="10" width="16" height="16" rx="2" fill="currentColor" opacity=".8"/>
  </g>
  <g font-family="Geist Mono, SFMono-Regular, Menlo, monospace">
    <text x="612" y="812" fill="#f5f5f5" font-size="17" font-weight="700">Merge stair</text>
    <text x="612" y="836" fill="#8a8a8a" font-size="13">Good motion, weaker balance.</text>
  </g>

  <g transform="translate(1218 630) scale(2)" color="#f5f5f5">
    <path d="M18 18H46M32 18V46" stroke="currentColor" stroke-linecap="square" stroke-width="4" opacity=".45"/>
    <rect x="8" y="8" width="16" height="16" rx="2" fill="currentColor"/>
    <rect x="40" y="8" width="16" height="16" rx="2" fill="currentColor" opacity=".65"/>
    <rect x="24" y="38" width="16" height="16" rx="2" stroke="currentColor" stroke-width="4"/>
  </g>
  <g font-family="Geist Mono, SFMono-Regular, Menlo, monospace">
    <text x="1112" y="812" fill="#f5f5f5" font-size="17" font-weight="700">Decision fork</text>
    <text x="1112" y="836" fill="#8a8a8a" font-size="13">Too static for Amend.</text>
  </g>
</svg>
