<svg width="512" height="512" viewBox="0 0 64 64" fill="none" xmlns="http://www.w3.org/2000/svg">
  <title>Amend hero deep ember C-loop concept</title>
  <path
    fill="#C77929"
    fill-rule="evenodd"
    d="M30 7C16.19 7 5 18.19 5 32S16.19 57 30 57C41.06 57 50.43 49.82 53.74 39.86L47.56 37.8C45.11 45.16 38.17 50.46 30 50.46C19.8 50.46 11.54 42.2 11.54 32S19.8 13.54 30 13.54C38.08 13.54 44.96 18.73 47.48 25.96L53.66 23.82C50.27 13.97 40.96 7 30 7Z"
  />
  <path
    fill="#60270F"
    d="M15.5 46.7C19 50 24 52.3 30.2 52.3C38.4 52.3 45.7 46.7 48.1 38.9L54 40C50.7 49.9 41.2 57 30 57C20.9 57 12.9 52.1 8.5 44.8L15.5 46.7Z"
    opacity="0.34"
  />
  <circle cx="52" cy="32" r="5.3" fill="#F3C366" />
</svg>
